<?xml version="1.0" encoding="utf-8"?>
<!-- Generator: Adobe Illustrator 19.2.1, SVG Export Plug-In . SVG Version: 6.00 Build 0)  -->
<svg version="1.1" id="Layer_1" xmlns="http://www.w3.org/2000/svg" xmlns:xlink="http://www.w3.org/1999/xlink" x="0px" y="0px"
	 viewBox="0 0 293.9 110.9" style="enable-background:new 0 0 293.9 110.9;" xml:space="preserve">
<style type="text/css">
	.st0{fill:#EF309D;stroke:#000000;stroke-miterlimit:10;}
	.st1{fill:#F9D008;stroke:#000000;stroke-miterlimit:10;}
	.st2{fill:#E8A718;stroke:#000000;stroke-miterlimit:10;}
	.st3{fill:#EAB371;stroke:#000000;stroke-miterlimit:10;}
	.st4{fill:#B3B3B3;stroke:#000000;stroke-miterlimit:10;}
	.st5{fill:#FFF173;}
</style>
<g>
	<path class="st0" d="M51.5,109.6h-39c-6.6,0-12-5.4-12-12V13.3c0-6.6,5.4-12,12-12h39c6.6,0,12,5.4,12,12v84.3
		C63.5,104.2,58.1,109.6,51.5,109.6z"/>
	<rect x="31.9" y="1.3" class="st1" width="212.5" height="54.8"/>
	<rect x="31.9" y="56.1" class="st2" width="212.5" height="53.5"/>
	<path class="st2" d="M244.4,1.3"/>
	<path class="st2" d="M244.4,1.3"/>
	<polygon class="st3" points="293.2,56.1 282.1,68.5 281.5,68.7 244,109.6 244,1.3 281.5,43.3 281.9,43.4 	"/>
	<polygon class="st4" points="292.8,56.1 281.4,68.5 281,68.7 281,68.5 	"/>
	<polygon class="st4" points="281.6,43.4 292.5,56.1 281,43.4 281,43.3 	"/>
	<polygon class="st4" points="292.3,56.1 281,68.5 281,43.4 	"/>
	<rect x="23" y="1.1" class="st4" width="20" height="108"/>
	<g>
		<path class="st5" d="M81.2,62.8c1.2-0.2,2.8-0.4,4.8-0.4c2.5,0,4.3,0.7,5.5,1.8c1.1,1,1.7,2.6,1.7,4.6c0,2-0.5,3.6-1.5,4.7
			c-1.3,1.6-3.5,2.4-6,2.4c-0.8,0-1.4,0-2-0.2v8.8h-2.5V62.8z M83.7,73.4c0.6,0.2,1.2,0.2,2.1,0.2c3,0,4.9-1.7,4.9-4.7
			c0-2.9-1.8-4.3-4.6-4.3c-1.1,0-1.9,0.1-2.4,0.2V73.4z"/>
		<path class="st5" d="M97.2,77.2c0.1,3.9,2.3,5.5,4.8,5.5c1.8,0,2.9-0.4,3.9-0.8l0.4,2.1c-0.9,0.5-2.4,1-4.7,1
			c-4.3,0-6.9-3.2-6.9-8s2.5-8.5,6.6-8.5c4.6,0,5.8,4.5,5.8,7.4c0,0.6-0.1,1-0.1,1.3H97.2z M104.7,75.1c0-1.8-0.7-4.7-3.5-4.7
			c-2.6,0-3.7,2.7-3.9,4.7H104.7z"/>
		<path class="st5" d="M110.3,73.1c0-1.6,0-3-0.1-4.3h2.3l0.1,2.6h0.1c0.7-1.5,2.3-3,4.6-3c1.9,0,5,1.3,5,6.7v9.4h-2.6v-9.1
			c0-2.5-0.8-4.7-3.2-4.7c-1.7,0-3,1.3-3.4,2.9c-0.1,0.4-0.2,0.8-0.2,1.3v9.5h-2.6V73.1z"/>
		<path class="st5" d="M136.4,84c-0.7,0.4-2.1,0.9-4,0.9c-4.2,0-7-3.2-7-8.1c0-4.9,3-8.4,7.5-8.4c1.5,0,2.8,0.4,3.5,0.8l-0.6,2.2
			c-0.6-0.4-1.6-0.7-3-0.7c-3.2,0-5,2.7-5,6c0,3.7,2.1,5.9,4.9,5.9c1.5,0,2.4-0.4,3.1-0.8L136.4,84z"/>
		<path class="st5" d="M142.3,64.3c0,1-0.6,1.8-1.6,1.8c-0.9,0-1.5-0.8-1.5-1.8c0-1,0.7-1.8,1.6-1.8
			C141.6,62.6,142.3,63.3,142.3,64.3z M139.4,84.6V68.8h2.6v15.8H139.4z"/>
		<path class="st5" d="M146.2,61.4h2.6v23.1h-2.6V61.4z"/>
		<path class="st5" d="M171.5,84.6c-0.6-0.6-1.1-1.2-1.8-2.2c-1.7,1.8-3.6,2.5-5.7,2.5c-3.8,0-6-2.9-6-6.2c0-3,1.6-5.1,3.8-6.4v-0.1
			c-1-1.4-1.6-3-1.6-4.6c0-2.7,1.7-5.4,5-5.4c2.4,0,4.3,1.8,4.3,4.7c0,2.3-1.2,4.1-4.3,5.9v0.1c1.7,2.2,3.5,4.6,4.8,6.1
			c0.9-1.5,1.5-3.7,1.9-6.4h2.3c-0.5,3.5-1.4,6.2-2.8,8.1c1,1.2,2.1,2.5,3.2,3.9H171.5z M168.4,80.8c-1.2-1.4-3.3-4.1-5.5-6.9
			c-1,0.7-2.5,2.2-2.5,4.5c0,2.5,1.7,4.4,4,4.4C166.1,82.8,167.5,81.9,168.4,80.8z M162.5,67.4c0,1.6,0.6,2.8,1.5,3.9
			c2-1.3,3.2-2.4,3.2-4.3c0-1.3-0.7-2.8-2.3-2.8C163.3,64.2,162.5,65.7,162.5,67.4z"/>
		<path class="st5" d="M196.6,83.8c-0.9,0.5-2.8,1-5.2,1c-5.5,0-9.7-3.9-9.7-11.1c0-6.9,4.1-11.5,10.2-11.5c2.4,0,4,0.6,4.6,1
			l-0.6,2.3c-1-0.5-2.3-0.9-3.9-0.9c-4.6,0-7.6,3.3-7.6,9.1c0,5.4,2.8,8.8,7.5,8.8c1.5,0,3.1-0.4,4.1-0.9L196.6,83.8z"/>
		<path class="st5" d="M215.9,73.3c0,7.6-4.1,11.6-9.1,11.6c-5.2,0-8.8-4.5-8.8-11.1c0-7,3.9-11.5,9.1-11.5
			C212.4,62.2,215.9,66.8,215.9,73.3z M200.7,73.7c0,4.7,2.3,8.9,6.2,8.9c4,0,6.3-4.1,6.3-9.1c0-4.4-2-8.9-6.2-8.9
			C202.8,64.5,200.7,68.9,200.7,73.7z"/>
	</g>
</g>
</svg>
